<?xml version="1.0" standalone="no"?>
<!DOCTYPE svg PUBLIC "-//W3C//DTD SVG 20010904//EN"
 "http://www.w3.org/TR/2001/REC-SVG-20010904/DTD/svg10.dtd">
<svg version="1.0" xmlns="http://www.w3.org/2000/svg"
 width="1280.000000pt" height="1280.000000pt" viewBox="0 0 1280.000000 1280.000000"
 preserveAspectRatio="xMidYMid meet">

<g transform="translate(0.000000,1280.000000) scale(0.100000,-0.100000)"
fill="#000000" stroke="none">
<path d="M8305 11051 c-3 -2 -5 -30 -5 -62 0 -31 -5 -103 -10 -159 l-11 -102
41 -95 c22 -52 46 -115 52 -139 16 -58 28 -56 28 4 0 26 9 117 20 202 11 85
21 174 22 198 2 23 4 42 5 42 10 0 46 -94 77 -200 72 -243 90 -295 106 -295
10 0 17 15 21 45 9 63 41 163 102 319 l52 134 7 -44 c4 -24 5 -150 2 -279 -3
-129 -1 -291 3 -360 l8 -125 25 2 c14 1 41 4 60 6 l35 3 -3 329 c-4 394 -14
551 -35 572 -11 11 -24 13 -58 6 l-44 -9 -58 -144 c-31 -80 -72 -189 -89 -242
-30 -91 -48 -121 -48 -81 0 36 -83 293 -121 374 l-41 86 -69 9 c-39 5 -72 8
-74 5z"/>
<path d="M5342 11023 c-18 -46 -33 -175 -35 -296 -2 -134 14 -187 72 -240 64
-57 171 -58 227 -2 l24 24 0 -122 c0 -107 -3 -128 -24 -173 -27 -58 -37 -64
-108 -64 -44 0 -54 4 -84 34 -36 36 -42 64 -24 111 8 22 15 26 42 23 35 -3 45
-22 28 -48 -9 -13 -12 -13 -21 3 -15 25 -39 21 -39 -6 0 -48 40 -61 84 -26 43
34 32 96 -23 118 -24 10 -34 10 -60 -3 -40 -21 -51 -44 -51 -104 0 -59 23 -93
83 -123 31 -16 52 -20 88 -16 67 8 101 29 144 86 66 91 75 135 90 431 8 146
17 298 21 338 l6 72 -69 0 -70 0 -6 -67 c-4 -38 -7 -125 -7 -194 0 -81 -5
-143 -15 -175 -17 -58 -66 -111 -110 -119 -58 -11 -60 -3 -59 192 0 98 6 215
14 261 7 48 9 87 4 92 -5 4 -32 11 -60 15 -49 6 -51 5 -62 -22z"/>
<path d="M4065 11021 c-47 -8 -128 -66 -160 -114 -34 -50 -58 -133 -52 -182 8
-74 38 -108 153 -177 127 -75 178 -118 204 -169 36 -70 21 -129 -45 -180 -39
-32 -136 -38 -184 -12 -52 27 -74 64 -79 130 -3 49 -1 61 16 76 12 11 31 17
49 15 24 -3 28 -7 28 -33 0 -28 -2 -30 -34 -27 -40 4 -39 -15 1 -37 23 -13 29
-13 52 2 56 37 19 137 -50 137 -48 0 -73 -15 -90 -55 -42 -101 14 -216 121
-249 47 -15 64 -16 124 -6 128 21 206 98 218 213 11 109 -22 157 -202 291 -61
45 -123 98 -139 116 -25 30 -28 40 -23 82 8 66 33 104 85 129 76 37 160 11
189 -59 16 -39 12 -82 -13 -120 -12 -18 -23 -22 -47 -20 -28 3 -32 7 -32 33 0
25 4 30 23 28 30 -4 30 33 0 43 -27 8 -68 -35 -68 -72 0 -55 77 -92 131 -64
49 27 67 146 29 207 -34 57 -122 88 -205 74z"/>
<path d="M4600 11020 c-96 -4 -194 -8 -217 -9 -31 -1 -43 -5 -43 -16 0 -18 4
-18 96 -15 l71 2 6 -99 c6 -93 15 -340 21 -613 l2 -125 73 -3 72 -3 -8 73 c-9
85 -10 754 0 764 3 3 41 7 84 8 71 1 78 3 78 21 0 24 -1 24 -235 15z"/>
<path d="M5033 11021 c-91 -23 -125 -85 -164 -298 -21 -116 -38 -489 -25 -556
l7 -37 69 0 70 0 0 149 c0 83 4 152 8 155 5 3 49 8 98 12 l89 6 -4 -161 c-3
-136 -1 -161 11 -161 22 0 27 96 25 455 -2 294 -3 312 -24 357 -32 70 -87 97
-160 79z m102 -55 c38 -38 47 -89 52 -283 l5 -183 -23 -9 c-13 -5 -57 -10 -98
-12 l-73 -4 1 155 c1 204 11 343 25 352 25 17 87 8 111 -16z"/>
<path d="M6285 10978 c-9 -30 -20 -307 -19 -483 0 -205 7 -244 52 -297 30 -35
114 -78 155 -78 103 0 157 84 187 293 14 91 22 95 35 17 9 -58 51 -175 78
-219 38 -62 152 -83 218 -38 88 59 116 162 134 482 l6 110 -75 109 -76 109 0
-89 c-1 -196 -20 -581 -30 -616 -6 -21 -21 -50 -34 -64 -18 -22 -27 -25 -53
-20 -17 4 -39 16 -48 26 -18 20 -85 209 -85 239 0 9 -9 45 -21 79 -17 52 -25
62 -44 62 -21 0 -23 -6 -30 -76 -17 -180 -65 -330 -111 -348 -12 -4 -28 4 -50
25 -67 65 -81 246 -44 589 11 102 20 188 20 193 0 13 -160 8 -165 -5z"/>
<path d="M7236 10559 c-3 -17 -6 -121 -6 -230 l0 -199 75 0 74 0 -5 98 c-6
117 -36 207 -113 333 l-18 30 -7 -32z"/>
<path d="M5852 8895 c-53 -16 -107 -57 -127 -95 -24 -47 -18 -148 45 -745 11
-104 20 -198 20 -209 0 -18 -395 768 -461 917 -36 84 -53 99 -122 111 -41 8
-87 -12 -87 -37 0 -8 -17 -11 -59 -9 -105 6 -221 -42 -221 -91 0 -12 90 -197
200 -412 110 -214 272 -533 360 -707 l159 -316 -62 -6 c-297 -27 -404 -43
-448 -66 -15 -9 -19 -22 -19 -68 0 -156 -80 -492 -220 -927 -233 -726 -288
-949 -297 -1213 -8 -207 21 -394 93 -592 123 -343 399 -644 768 -836 251 -131
479 -198 834 -245 167 -21 232 -23 335 -9 40 6 106 15 147 21 192 27 377 75
543 140 571 227 926 625 1039 1167 33 155 32 447 -1 612 -41 205 -101 421
-221 795 -186 581 -251 838 -267 1054 l-6 93 -34 15 c-99 41 -504 72 -1056 80
-289 4 -420 10 -422 17 -6 17 -62 650 -109 1220 l-23 279 -31 28 c-54 48 -159
63 -250 34z m1567 -3590 c62 -82 132 -218 161 -310 27 -90 36 -247 21 -386
-23 -210 -82 -352 -195 -465 -39 -39 -90 -81 -113 -92 -131 -67 -307 -96 -449
-73 -90 14 -206 49 -199 61 3 4 -3 6 -12 4 -39 -9 -367 194 -361 223 5 21 169
193 179 188 5 -4 6 0 4 7 -3 7 15 33 39 57 25 25 43 48 40 53 -3 4 -1 8 4 8 5
0 90 81 188 181 363 367 615 609 633 609 6 0 33 -29 60 -65z m-942 -741 c-3
-3 -12 -4 -19 -1 -8 3 -5 6 6 6 11 1 17 -2 13 -5z"/>
<path d="M7115 5080 c-110 -110 -197 -200 -194 -200 10 0 431 60 502 71 l68
11 -7 32 c-16 77 -134 286 -162 286 -4 0 -97 -90 -207 -200z"/>
<path d="M7340 4849 c-52 -4 -168 -8 -258 -9 -90 -1 -162 -5 -160 -10 3 -9
157 -153 271 -254 42 -37 74 -73 70 -79 -3 -5 -1 -7 5 -3 13 8 145 -102 137
-114 -3 -5 0 -12 6 -16 8 -4 9 -3 5 4 -9 16 7 15 22 0 9 -9 15 -3 28 27 50
121 69 300 42 414 -13 58 4 54 -168 40z"/>
<path d="M6617 4536 c-114 -129 -216 -245 -227 -259 l-20 -26 47 -36 c27 -21
47 -41 45 -47 -1 -5 2 -7 7 -3 14 8 93 -33 86 -45 -3 -5 0 -7 8 -4 7 2 34 -4
58 -14 48 -21 157 -48 163 -41 2 2 9 54 15 114 6 61 17 169 26 240 15 137 20
355 8 355 -5 0 -101 -106 -216 -234z"/>
<path d="M6892 4562 c-7 -114 -12 -271 -12 -349 l0 -143 78 0 c92 0 170 19
252 60 68 34 89 39 45 10 -16 -11 -26 -20 -22 -20 15 0 57 32 52 40 -8 12 23
32 37 24 7 -4 10 -3 5 1 -4 5 13 30 39 56 29 29 42 49 35 54 -6 3 -9 11 -5 16
3 5 0 8 -8 7 -7 -2 -12 3 -10 10 1 6 -2 11 -7 10 -10 -4 -161 133 -337 304
l-130 128 -12 -208z"/>
<path d="M6822 4285 c0 -16 2 -22 5 -12 2 9 2 23 0 30 -3 6 -5 -1 -5 -18z"/>
<path d="M7375 4228 l-40 -43 43 40 c39 36 47 45 39 45 -2 0 -21 -19 -42 -42z"/>
<path d="M7389 4203 c-13 -16 -12 -17 4 -4 9 7 17 15 17 17 0 8 -8 3 -21 -13z"/>
<path d="M6812 4170 c0 -19 2 -27 5 -17 2 9 2 25 0 35 -3 9 -5 1 -5 -18z"/>
<path d="M7328 4120 c-26 -32 -41 -57 -35 -54 7 2 26 23 42 46 63 87 59 92 -7
8z"/>
<path d="M7200 4110 c-9 -6 -10 -10 -3 -10 6 0 15 5 18 10 8 12 4 12 -15 0z"/>
<path d="M6802 4085 c0 -16 2 -22 5 -12 2 9 2 23 0 30 -3 6 -5 -1 -5 -18z"/>
<path d="M6862 4090 c0 -14 2 -19 5 -12 2 6 2 18 0 25 -3 6 -5 1 -5 -13z"/>
<path d="M6600 4090 c8 -5 20 -10 25 -10 6 0 3 5 -5 10 -8 5 -19 10 -25 10 -5
0 -3 -5 5 -10z"/>
<path d="M7150 4090 c-8 -5 -10 -10 -5 -10 6 0 17 5 25 10 8 5 11 10 5 10 -5
0 -17 -5 -25 -10z"/>
<path d="M7085 4070 c-13 -5 -14 -9 -5 -9 8 0 24 4 35 9 13 5 14 9 5 9 -8 0
-24 -4 -35 -9z"/>
<path d="M6893 4053 c9 -2 23 -2 30 0 6 3 -1 5 -18 5 -16 0 -22 -2 -12 -5z"/>
<path d="M7003 4053 c9 -2 23 -2 30 0 6 3 -1 5 -18 5 -16 0 -22 -2 -12 -5z"/>
<path d="M7245 4050 c-3 -6 1 -7 9 -4 18 7 21 14 7 14 -6 0 -13 -4 -16 -10z"/>
<path d="M6748 4043 c7 -3 16 -2 19 1 4 3 -2 6 -13 5 -11 0 -14 -3 -6 -6z"/>
<path d="M7118 4003 c7 -3 16 -2 19 1 4 3 -2 6 -13 5 -11 0 -14 -3 -6 -6z"/>
<path d="M6838 3993 c6 -2 18 -2 25 0 6 3 1 5 -13 5 -14 0 -19 -2 -12 -5z"/>
<path d="M7048 3993 c6 -2 18 -2 25 0 6 3 1 5 -13 5 -14 0 -19 -2 -12 -5z"/>
<path d="M6917 3983 c18 -2 50 -2 70 0 21 2 7 4 -32 4 -38 0 -55 -2 -38 -4z"/>
<path d="M2120 4651 c-11 -22 -7 -27 123 -169 31 -35 55 -67 52 -73 -10 -14
-99 -11 -172 8 -63 15 -67 15 -79 -2 -18 -24 -17 -30 1 -48 31 -32 200 -48
286 -28 l35 8 128 -139 c71 -76 126 -142 122 -145 -13 -13 -223 19 -338 53
-66 18 -124 34 -128 34 -14 0 -31 -37 -24 -54 6 -16 105 -51 231 -82 44 -11
118 -18 207 -19 l138 -3 76 -75 c42 -42 73 -79 70 -82 -10 -10 -248 -6 -351 6
-106 12 -131 5 -125 -35 2 -17 15 -23 68 -33 99 -19 324 -27 409 -15 l75 11
48 -41 c27 -22 46 -44 41 -48 -12 -12 -265 -43 -507 -64 -27 -2 -52 -10 -57
-17 -14 -22 -10 -49 8 -56 39 -15 529 39 630 69 9 3 125 -83 120 -88 -3 -3
-109 -32 -317 -85 -91 -23 -171 -46 -177 -52 -7 -5 -13 -17 -13 -27 0 -44 18
-42 305 30 254 65 279 70 299 56 44 -31 71 -55 66 -59 -3 -2 -57 -24 -120 -49
-210 -83 -348 -117 -512 -127 -90 -5 -113 -9 -122 -23 -8 -13 -8 -23 0 -35 10
-16 27 -18 123 -16 178 3 375 53 599 152 l108 47 59 -43 c33 -24 61 -48 63
-52 6 -18 -297 -116 -463 -149 -84 -18 -90 -21 -93 -45 -5 -44 21 -49 144 -22
125 27 257 67 395 119 53 20 100 36 104 36 3 0 45 -27 91 -59 64 -45 81 -61
67 -65 -10 -3 -117 -28 -238 -56 -327 -74 -336 -77 -348 -89 -7 -7 -7 -18 1
-36 13 -28 19 -29 77 -15 22 6 119 28 215 50 96 22 213 49 260 60 129 31 146
33 166 21 16 -8 10 -11 -31 -11 l-50 -1 28 -22 c38 -32 34 -40 -15 -32 -40 6
-42 6 -23 -9 15 -12 16 -15 5 -16 -8 0 -62 -15 -120 -33 -102 -32 -105 -34
-105 -63 0 -47 28 -44 279 37 33 10 60 19 62 19 1 0 4 -10 8 -23 3 -13 16 -40
30 -59 l24 -36 -25 -11 c-37 -17 -57 -13 -83 14 -28 30 -41 31 -65 5 -18 -20
-18 -21 4 -44 l22 -23 -40 -16 c-45 -19 -55 -30 -46 -56 9 -30 31 -32 89 -10
l55 21 29 -33 c62 -71 84 -100 81 -103 -5 -5 -161 25 -259 48 -65 15 -65 16
-193 151 -76 80 -136 135 -148 135 -10 0 -23 -9 -30 -21 -12 -23 -11 -24 111
-151 58 -62 58 -66 -11 -44 -171 54 -214 68 -258 86 -60 23 -81 18 -81 -20 0
-31 -5 -28 120 -71 47 -17 92 -32 100 -35 8 -3 -26 -20 -75 -37 -126 -45 -129
-47 -67 -68 l52 -18 115 41 115 41 52 -16 c29 -9 79 -21 110 -28 32 -7 55 -15
53 -19 -6 -10 -185 -75 -245 -90 -43 -11 -50 -9 -131 29 -139 65 -191 76 -369
76 -144 0 -161 -2 -235 -28 -273 -96 -447 -325 -462 -610 -4 -69 -9 -95 -16
-88 -6 6 -17 11 -24 11 -27 0 -24 -29 8 -74 18 -25 31 -48 28 -50 -2 -2 -80
11 -173 30 -93 19 -176 32 -183 30 -21 -8 -15 -36 10 -45 12 -4 53 -14 91 -21
l69 -13 -24 -18 c-13 -10 -40 -26 -59 -35 -49 -23 -60 -33 -53 -50 12 -32 97
-1 159 58 l32 30 78 -13 c50 -9 86 -21 98 -33 18 -18 18 -19 -11 -37 -16 -10
-66 -32 -112 -48 -46 -17 -89 -35 -94 -40 -14 -14 -1 -41 21 -41 45 0 189 61
248 106 30 22 33 22 79 8 27 -8 50 -12 52 -10 2 2 -1 32 -7 67 -16 103 -12
273 10 377 47 230 194 410 387 473 77 26 215 25 317 -1 73 -18 276 -106 276
-119 0 -3 -33 -7 -73 -9 -56 -2 -87 2 -128 17 -30 12 -61 21 -69 20 -9 0 -10
-2 -3 -5 10 -5 -66 -84 -81 -84 -3 0 -6 10 -7 23 0 12 -3 16 -6 9 -3 -7 -2
-24 1 -38 6 -23 7 -24 36 -9 45 23 50 19 50 -37 0 -46 -4 -56 -37 -92 -24 -25
-14 -18 24 16 116 105 231 145 388 135 201 -12 457 -136 575 -277 l41 -49 -23
-33 c-13 -18 -24 -34 -24 -36 -1 -2 -20 16 -42 40 -22 23 -42 41 -45 38 -14
-15 -275 -357 -282 -369 -6 -11 -4 -13 8 -8 25 9 284 77 296 77 15 0 0 -74
-18 -85 -9 -5 -38 -15 -66 -22 -27 -8 -75 -26 -107 -41 l-56 -28 14 28 c8 15
22 28 32 29 9 0 12 3 5 5 -6 3 -29 0 -51 -6 -32 -8 -47 -20 -72 -60 -18 -28
-30 -57 -26 -65 7 -20 43 -19 54 1 6 11 12 13 16 6 4 -7 -13 -21 -41 -35 l-48
-23 -63 20 -62 21 25 37 c14 20 25 39 25 42 0 13 -78 -19 -95 -39 -11 -13 -33
-25 -50 -27 -34 -3 -47 -35 -21 -50 13 -7 14 -13 5 -29 -27 -51 28 -69 58 -19
19 34 22 34 77 19 l39 -11 -88 -40 -88 -40 -115 22 c-103 20 -116 20 -130 6
-24 -24 1 -44 64 -52 30 -3 56 -10 59 -14 2 -4 -42 -21 -99 -39 -104 -32 -128
-49 -100 -72 12 -10 27 -9 74 4 33 10 62 17 65 17 3 0 -10 -21 -29 -48 -27
-36 -32 -51 -25 -65 18 -31 37 -18 96 67 51 74 64 86 108 102 27 11 54 21 59
23 15 6 -27 -58 -82 -125 -54 -66 -63 -97 -27 -101 14 -2 35 16 68 57 47 58
127 182 127 198 0 6 102 62 114 62 6 0 -38 -116 -72 -192 -27 -60 -29 -69 -16
-82 8 -8 21 -13 28 -10 16 6 79 147 111 249 19 60 29 74 64 98 22 16 46 25 52
22 15 -10 2 -77 -28 -147 -26 -59 -25 -88 2 -88 26 0 68 84 89 182 5 23 9 25
33 19 32 -9 33 -19 2 -122 -23 -79 -24 -99 -4 -99 8 0 17 -14 21 -35 6 -34 7
-35 43 -29 66 11 140 52 195 107 l55 54 43 -44 c59 -60 121 -98 217 -133 45
-17 83 -30 85 -30 2 0 6 22 9 50 12 104 -26 226 -96 302 l-34 37 66 22 c36 12
72 24 79 27 7 2 11 -2 9 -9 -2 -8 -2 -11 0 -7 3 4 3 9 1 12 -2 2 20 23 49 45
50 40 123 128 123 149 0 16 -39 22 -155 22 -77 0 -131 -6 -177 -19 l-67 -18
18 36 c10 20 21 51 25 70 3 19 13 42 21 51 14 15 10 16 -52 8 -44 -6 -71 -15
-77 -25 -7 -12 -14 -6 -35 31 -14 25 -45 72 -68 105 -39 53 -40 58 -19 54 17
-4 46 13 111 64 48 37 98 76 111 86 18 14 28 16 44 7 28 -15 25 -27 -10 -35
-37 -8 -39 -22 -5 -31 34 -8 31 -20 -7 -30 -30 -7 -27 -8 32 -13 59 -5 69 -10
106 -45 l41 -39 -70 -34 c-57 -27 -68 -37 -64 -53 3 -10 0 -21 -7 -24 -6 -3 0
-3 14 0 42 10 170 72 170 84 0 5 22 10 51 10 74 0 132 36 144 91 6 27 10 29
57 29 l51 0 -27 -21 c-61 -48 -72 -114 -25 -153 56 -47 161 -29 194 34 19 37
19 90 0 116 -20 26 -19 34 5 34 48 0 290 54 400 89 l120 39 -34 -39 c-30 -33
-72 -99 -63 -99 1 0 52 20 112 44 118 48 120 50 101 116 -6 23 -2 28 64 59 98
48 132 70 125 81 -3 5 -18 9 -33 8 -15 0 -56 5 -92 12 -36 7 -99 15 -140 19
l-75 6 114 23 c125 25 144 32 133 49 -5 8 -36 5 -112 -13 -108 -25 -206 -33
-250 -22 -14 3 -69 18 -122 32 l-96 27 -34 -21 c-18 -11 -42 -20 -53 -21 -11
-1 5 -10 35 -20 l55 -19 -78 5 c-115 9 -131 18 -57 33 85 18 105 29 136 74 23
32 25 42 16 62 l-10 23 59 -18 c100 -31 461 -81 476 -65 3 2 0 20 -6 39 -11
31 -18 37 -64 48 -44 10 -192 71 -205 84 -2 2 11 17 30 33 29 27 33 36 33 82
0 46 -4 55 -33 81 -37 33 -60 36 -107 14 -47 -23 -71 -85 -43 -113 7 -7 8 -12
4 -12 -13 0 -183 151 -269 238 l-79 79 32 7 c18 3 50 23 71 45 32 32 39 46 39
78 0 90 -84 125 -152 64 -30 -26 -33 -35 -33 -85 0 -30 -3 -52 -7 -48 -3 4
-40 47 -81 95 l-74 89 19 36 c14 27 18 51 15 86 -4 43 -10 55 -50 92 -30 29
-61 47 -92 55 -43 11 -48 16 -76 71 -33 65 -46 71 -31 14 12 -40 1 -47 -34
-21 -30 23 -36 18 -19 -16 21 -40 12 -48 -25 -20 -42 31 -37 14 11 -35 38 -38
41 -46 43 -100 2 -79 28 -130 85 -165 46 -29 113 -39 126 -19 12 19 30 9 58
-30 62 -87 240 -291 343 -391 165 -160 288 -246 430 -299 95 -35 78 -37 -106
-15 -118 14 -302 58 -326 77 -6 4 -14 30 -18 56 -3 26 -13 69 -22 95 -13 40
-14 53 -3 79 12 29 11 32 -16 54 -55 43 -174 49 -213 11 -14 -14 -14 -18 2
-41 23 -36 58 -57 106 -63 22 -3 40 -7 40 -9 0 -3 9 -36 19 -75 l20 -70 -58
32 c-31 17 -84 50 -116 73 l-59 41 -17 110 c-9 61 -22 151 -28 200 -18 134
-18 135 -46 135 -21 0 -51 -30 -41 -41 2 -2 6 -23 10 -45 5 -39 4 -42 -19 -48
-37 -9 -67 -63 -61 -105 l5 -34 -44 43 c-36 35 -45 51 -45 78 0 18 -4 52 -10
75 -5 23 -19 94 -31 157 -12 63 -26 123 -31 133 -12 22 -45 22 -57 -1 -11 -21
9 -126 28 -145 6 -6 11 -15 11 -20 0 -5 -12 6 -27 24 -30 36 -94 68 -134 69
-24 0 -27 5 -33 49 -7 56 -28 81 -54 64 -21 -13 -27 -55 -13 -94 12 -35 9 -36
-32 -5 -18 13 -45 32 -62 42 l-30 19 28 -33 c30 -37 35 -57 11 -48 -9 3 -24 6
-35 6 -17 0 -19 8 -19 65 0 60 -2 66 -25 77 -16 7 -29 8 -35 2 -5 -5 -11 -68
-13 -139 -4 -122 -32 -305 -57 -362 l-9 -23 -61 37 c-33 19 -62 38 -64 42 -2
3 1 116 8 251 6 135 11 295 11 355 l0 110 -27 3 c-38 5 -33 45 -58 -457 -6
-113 -12 -206 -13 -208 -2 -1 -46 26 -99 62 l-96 64 28 114 c39 157 57 302 40
322 -7 8 -18 15 -25 15 -26 0 -38 -34 -52 -138 -12 -98 -50 -262 -59 -262 -3
0 -36 24 -74 52 -49 37 -68 57 -64 68 3 8 14 60 25 115 11 55 36 162 56 237
19 75 33 144 30 152 -10 25 -56 20 -67 -6 -5 -13 -32 -113 -60 -223 -28 -110
-53 -208 -56 -217 -5 -16 -11 -14 -46 15 -46 37 -45 14 -8 262 21 133 21 140
4 152 -15 11 -21 11 -38 -1 -17 -11 -24 -38 -42 -160 -12 -81 -24 -149 -27
-153 -3 -3 -33 17 -67 43 l-61 49 5 55 c3 30 9 91 15 135 6 44 12 125 13 180
l3 100 -30 0 c-34 0 -33 8 -59 -248 -8 -77 -17 -141 -20 -145 -3 -3 -34 21
-69 54 l-63 59 -7 175 c-15 362 -22 396 -72 376 -16 -6 -17 -23 -11 -239 l7
-232 -107 110 c-102 106 -106 111 -100 145 24 136 18 233 -15 251 -39 20 -49
-3 -49 -113 0 -60 -4 -98 -10 -96 -5 2 -96 98 -201 213 -197 215 -226 238
-249 196z m2160 -1344 c0 -16 -35 -1 -38 16 -3 16 -1 17 17 5 12 -7 21 -17 21
-21z m3 -33 c32 -11 47 -22 47 -33 0 -27 60 -111 94 -133 17 -11 22 -17 11
-13 -11 3 -24 7 -29 8 -6 1 -15 -34 -22 -78 -7 -44 -20 -100 -29 -125 -10 -25
-21 -63 -25 -85 l-7 -40 -2 40 c-1 43 -31 101 -65 125 -11 8 -39 23 -61 32
-22 9 -32 17 -22 17 9 1 17 5 17 9 0 4 9 50 19 102 27 132 31 178 17 184 -29
12 15 4 57 -10z m366 -84 c-1 -34 -5 -57 -10 -53 -7 8 0 113 8 113 2 0 3 -27
2 -60z m-3 -84 c11 -18 17 -59 21 -138 5 -97 3 -115 -11 -127 -25 -21 -19 -59
13 -92 16 -16 26 -29 22 -29 -4 0 -12 5 -19 12 -9 9 -12 6 -12 -15 0 -15 -5
-27 -10 -27 -6 0 -64 27 -130 60 l-119 60 15 42 c20 56 44 171 44 209 0 28 1
29 38 23 40 -6 112 16 112 35 0 19 19 12 36 -13z m305 -33 c13 -16 12 -17 -3
-4 -17 13 -22 21 -14 21 2 0 10 -8 17 -17z m-146 -133 c89 -89 96 -99 63 -85
-21 8 -58 15 -83 15 l-45 0 0 58 c0 45 -5 65 -20 82 -19 22 -24 30 -17 30 1 0
47 -45 102 -100z m156 -23 l-23 -22 17 28 c10 15 20 25 23 22 3 -3 -5 -16 -17
-28z m-31 -44 c0 -26 0 -26 -20 -8 -16 14 -17 20 -8 27 22 13 28 9 28 -19z
m-200 7 c0 -5 -8 -10 -17 -10 -15 0 -16 2 -3 10 19 12 20 12 20 0z m223 -170
c8 -52 13 -96 12 -97 -1 -2 -15 3 -32 9 -26 10 -35 9 -58 -6 -26 -17 -28 -17
-92 10 -55 24 -64 31 -59 48 3 12 6 26 6 32 0 6 25 14 56 17 63 7 99 26 122
67 9 16 20 26 24 22 4 -4 13 -50 21 -102z m317 70 c0 -5 -8 -10 -17 -10 -15 0
-16 2 -3 10 19 12 20 12 20 0z m-845 -63 c96 -49 117 -67 76 -67 -24 0 -212
119 -189 120 5 0 55 -24 113 -53z m650 -17 c44 -32 104 -70 133 -85 66 -36 68
-58 6 -103 l-46 -33 -49 16 c-27 9 -56 23 -63 31 -9 8 -17 48 -21 101 -7 80
-10 89 -39 116 -40 38 -20 27 79 -43z m-610 -61 c20 -14 24 -19 10 -15 -11 3
-65 -14 -125 -38 -91 -37 -105 -45 -105 -65 0 -49 24 -47 173 12 l142 57 35
-17 c42 -20 44 -29 9 -37 -14 -4 -48 -29 -75 -57 l-48 -49 -143 15 c-79 8
-148 15 -154 15 -10 0 -154 182 -154 194 0 2 16 10 35 16 19 6 33 15 30 20 -3
5 9 5 27 -1 18 -5 52 -9 76 -9 36 0 49 6 75 33 l32 32 65 -42 c36 -23 79 -52
95 -64z m-394 74 c13 -16 12 -17 -3 -4 -17 13 -22 21 -14 21 2 0 10 -8 17 -17z
m1229 -93 c18 -12 2 -12 -25 0 -13 6 -15 9 -5 9 8 0 22 -4 30 -9z m-488 -80
c4 0 8 9 8 19 0 11 4 22 9 26 6 3 6 -6 1 -25 -5 -17 -5 -30 0 -30 5 0 12 -9
15 -20 4 -12 16 -30 28 -42 12 -11 18 -19 12 -16 -94 42 -295 144 -295 150 0
18 43 10 124 -24 49 -21 93 -38 98 -38z m208 -2 c0 -9 -3 -19 -7 -21 -5 -3 -8
10 -9 29 0 21 3 30 8 22 4 -7 8 -21 8 -30z m-117 -117 l37 -19 -37 -7 c-54
-10 -123 -42 -158 -73 l-30 -27 25 29 c26 30 112 76 143 76 10 0 15 5 12 10
-3 6 -36 10 -73 10 l-67 0 -16 43 -15 44 70 -34 c39 -19 88 -42 109 -52z m119
36 c54 -19 57 -27 12 -27 -30 0 -36 -3 -24 -11 12 -8 11 -9 -5 -5 -11 3 -32 8
-47 12 -33 7 -34 12 -10 30 21 17 28 17 74 1z m-1018 -41 c49 -9 91 -17 93
-20 4 -4 -124 -96 -190 -135 -20 -13 -35 -26 -32 -31 3 -4 -10 -4 -28 0 -105
27 -207 50 -237 55 -19 3 -48 17 -65 32 l-30 26 28 -17 c20 -12 38 -15 60 -10
45 9 210 78 249 103 18 11 40 19 48 16 8 -2 55 -11 104 -19z m394 -53 l34 -6
-49 -49 c-50 -52 -158 -130 -231 -167 -33 -17 -43 -27 -40 -43 6 -40 32 -45
90 -17 76 38 206 137 260 198 l46 53 26 -17 c20 -14 39 -16 79 -12 l53 5 -65
-62 c-62 -59 -225 -198 -305 -259 -20 -15 -36 -35 -36 -43 0 -8 -25 10 -57 42
-68 66 -150 130 -215 168 -27 15 -48 30 -48 32 0 2 37 29 83 59 45 30 105 73
132 95 l50 40 80 -5 c44 -3 95 -9 113 -12z m1147 -13 c-3 -5 -30 -9 -58 -8
l-52 1 55 7 c30 4 56 7 58 8 2 1 0 -2 -3 -8z m-345 -15 c47 -8 135 -18 195
-22 61 -4 97 -9 81 -11 -16 -2 -56 -22 -88 -44 -56 -38 -61 -39 -114 -32 -45
5 -58 3 -74 -11 -24 -22 -25 -37 -4 -82 11 -22 34 -44 66 -62 l49 -29 -98 -6
c-54 -3 -137 -9 -184 -12 l-86 -6 -13 32 c-15 36 -56 61 -120 71 -44 8 -44 8
9 5 l55 -3 110 112 c61 62 116 113 121 114 6 0 48 -6 95 -14z m495 -70 c28 -7
83 -18 123 -25 40 -7 71 -14 69 -16 -5 -5 -186 -84 -193 -84 -2 0 -4 9 -4 21
0 33 -18 58 -60 79 -44 23 -80 26 -98 8 -36 -36 18 -92 100 -103 l53 -8 -66
-22 c-110 -38 -126 -39 -134 -15 -4 12 -20 36 -36 54 l-29 33 39 27 c21 15 49
38 62 52 21 23 29 25 74 18 27 -3 73 -12 100 -19z m-944 -21 c9 -8 37 -18 62
-22 l44 -7 -66 -53 c-36 -29 -82 -64 -101 -76 -34 -21 -38 -22 -80 -8 -25 8
-46 16 -48 17 -4 3 160 164 167 165 3 0 12 -7 22 -16z m624 -32 c-3 -3 -11 0
-18 7 -9 10 -8 11 6 5 10 -3 15 -9 12 -12z m-921 -554 c-15 -30 -18 -31 -25
-13 -13 34 -10 45 14 54 29 11 32 0 11 -41z"/>
<path d="M10403 4455 c-108 -118 -201 -215 -205 -215 -4 0 -8 44 -8 99 0 73
-4 102 -14 110 -26 22 -53 -3 -61 -54 -7 -50 2 -165 16 -203 8 -21 -3 -36
-101 -135 l-110 -112 6 232 c7 218 6 233 -11 239 -10 4 -25 3 -34 -3 -16 -10
-18 -26 -37 -428 l-6 -120 -64 -59 c-36 -32 -67 -57 -69 -55 -5 6 -24 159 -34
277 -4 57 -13 108 -19 114 -6 6 -22 8 -38 4 l-27 -7 7 -87 c8 -104 35 -331 41
-353 4 -10 -17 -33 -60 -68 -36 -30 -68 -51 -70 -49 -3 3 -15 71 -28 153 -18
123 -25 150 -43 161 -16 11 -24 12 -37 1 -16 -11 -15 -24 8 -186 14 -96 28
-177 30 -182 3 -4 -14 -23 -37 -43 -52 -42 -42 -60 -104 188 -25 100 -49 198
-55 219 -9 32 -14 37 -40 37 -16 0 -32 -6 -35 -13 -3 -8 15 -95 39 -193 24
-98 49 -207 56 -242 7 -35 14 -69 17 -76 4 -11 -133 -122 -141 -114 -9 9 -45
175 -55 253 -7 50 -14 100 -16 112 -5 28 -41 40 -61 20 -13 -13 -14 -27 -4
-103 11 -85 52 -281 66 -316 5 -12 -16 -32 -90 -83 -53 -37 -98 -66 -100 -63
-2 2 -9 107 -15 233 -15 334 -20 418 -26 427 -7 12 -52 10 -59 -2 -6 -10 8
-442 21 -622 l6 -86 -64 -41 c-34 -22 -66 -37 -71 -32 -21 21 -59 251 -62 372
-2 130 -6 149 -30 149 -30 0 -45 -31 -45 -90 0 -58 0 -58 -32 -63 -18 -2 -34
-3 -36 -2 -2 1 9 17 24 34 14 18 25 34 22 36 -2 2 -27 -14 -56 -35 -29 -22
-54 -40 -56 -40 -2 0 -3 25 -2 56 1 44 -3 59 -17 68 -24 15 -44 -11 -53 -70
-5 -38 -10 -44 -31 -44 -32 0 -96 -33 -129 -67 -19 -21 -24 -23 -17 -8 6 11
15 46 22 78 10 45 10 61 1 72 -19 23 -47 17 -59 -12 -13 -33 -71 -334 -71
-371 0 -16 -14 -37 -37 -60 l-38 -36 -3 30 c-5 48 -22 81 -48 93 -36 16 -55
14 -81 -11 -13 -12 -23 -16 -23 -10 0 6 4 13 10 17 5 3 7 13 4 23 -5 13 -4 14
4 3 16 -23 48 3 55 45 8 47 -7 74 -38 74 -14 0 -25 -1 -25 -3 0 -1 -11 -81
-25 -177 -14 -96 -28 -196 -32 -221 -5 -46 -7 -48 -97 -107 -97 -63 -136 -86
-141 -80 -1 2 6 35 17 74 l19 72 44 4 c81 10 144 82 100 115 -29 20 -134 17
-180 -7 l-39 -20 40 43 c56 58 191 220 244 290 32 43 47 56 59 51 9 -4 34 -9
57 -12 34 -3 47 2 85 30 56 42 83 97 84 167 0 50 3 58 43 98 23 24 42 46 42
48 0 2 -17 -5 -37 -17 -39 -24 -41 -21 -18 36 8 17 7 17 -24 1 -18 -9 -35 -14
-38 -12 -2 3 0 22 6 42 14 51 -8 32 -39 -35 -13 -29 -30 -50 -39 -50 -34 0
-120 -49 -145 -83 -38 -50 -43 -93 -16 -150 l22 -47 -78 -93 c-42 -50 -81 -96
-85 -101 -4 -5 -4 7 0 25 18 81 -27 149 -98 149 -50 0 -86 -36 -86 -89 0 -52
28 -88 85 -115 l48 -23 -53 -60 c-30 -33 -98 -98 -152 -144 -140 -120 -129
-115 -125 -68 5 46 -9 66 -57 86 -71 30 -131 -17 -131 -104 0 -35 6 -48 35
-76 l35 -34 -92 -40 c-54 -23 -94 -47 -96 -56 -3 -13 4 -13 48 4 132 50 266
140 402 268 51 47 68 59 68 44 0 -28 27 -61 53 -65 20 -3 20 -4 -5 -9 -15 -4
-25 -3 -23 2 3 4 1 10 -4 14 -14 8 -48 -111 -50 -172 -2 -38 -145 -74 -436
-111 -45 -5 -61 -11 -63 -25 -3 -13 4 -17 30 -17 92 0 323 42 413 76 16 6 18
5 8 -7 -18 -18 -16 -45 3 -75 9 -13 15 -26 13 -28 -5 -4 -185 -55 -214 -60
-11 -2 -31 -7 -45 -10 -14 -4 -74 2 -135 13 -84 16 -111 17 -117 8 -8 -13 0
-16 127 -43 44 -10 73 -19 64 -21 -8 -2 -26 0 -38 5 -25 9 -135 -2 -187 -19
-35 -11 -80 -64 -63 -74 6 -4 25 -4 42 -1 39 7 105 -27 89 -47 -5 -7 -14 -29
-20 -49 l-10 -37 104 -41 c58 -22 107 -40 110 -40 7 0 -35 78 -46 85 -5 3 -15
15 -21 26 -10 20 -10 20 29 0 101 -52 366 -143 454 -157 l38 -6 -22 -30 c-11
-17 -21 -46 -22 -65 -1 -33 2 -36 85 -80 l86 -47 31 23 c47 33 43 89 -11 149
l-20 22 81 0 c78 0 81 -1 94 -27 7 -15 31 -38 53 -50 72 -41 148 -26 223 41
36 33 44 36 101 36 34 0 61 4 61 10 0 6 -10 10 -22 10 -13 0 -29 4 -37 9 -10
6 -3 12 25 21 l39 13 -43 15 c-39 13 -41 15 -25 27 15 11 28 4 107 -57 67 -51
96 -68 115 -66 18 2 27 10 29 25 2 16 -12 33 -58 70 -103 80 -262 218 -310
267 -41 43 -43 46 -17 37 39 -15 87 -14 119 3 27 14 29 13 59 -25 42 -53 173
-157 253 -199 70 -38 98 -36 104 8 3 16 -7 26 -40 43 -99 50 -283 197 -267
214 9 8 122 25 176 25 33 0 50 -7 85 -36 117 -98 393 -263 411 -245 6 6 19 11
28 11 12 0 16 6 12 20 -3 12 -36 37 -82 62 -77 42 -245 151 -290 186 l-25 20
55 10 c174 33 160 33 214 2 119 -67 433 -162 461 -139 17 14 18 43 2 56 -7 5
-40 16 -73 23 -95 22 -315 98 -315 110 0 3 49 18 110 34 l109 27 118 -41 c65
-22 128 -45 141 -50 50 -21 83 0 67 42 -6 15 -164 78 -195 78 -28 0 6 16 108
50 61 21 108 42 113 53 13 23 -7 61 -29 54 -10 -3 -91 -31 -181 -61 -90 -31
-170 -56 -179 -56 -8 0 24 40 72 90 47 49 86 95 86 103 0 18 -21 37 -41 37 -9
0 -74 -61 -144 -135 -140 -149 -129 -142 -305 -175 -58 -11 -116 -23 -128 -26
-23 -5 -23 -3 8 40 18 24 45 56 60 71 27 26 28 26 68 10 22 -9 53 -15 69 -13
22 2 28 8 28 28 0 19 -9 29 -38 43 -36 17 -37 18 -22 41 18 27 11 53 -17 62
-14 4 -29 -3 -52 -24 -29 -28 -33 -30 -61 -18 -26 11 -33 11 -50 -3 -16 -13
-16 -11 2 9 12 14 35 48 50 76 l28 51 140 -44 c163 -50 190 -52 190 -8 0 29
-2 30 -115 65 -102 32 -112 38 -95 49 17 10 12 11 -30 6 l-50 -7 29 30 29 31
-44 3 c-34 3 -40 6 -26 12 12 6 54 1 115 -14 53 -12 151 -35 217 -50 66 -15
173 -40 238 -55 94 -22 120 -25 132 -15 18 15 19 44 3 57 -7 6 -128 36 -268
67 -140 32 -272 63 -292 68 l-37 11 87 60 87 60 45 -17 c147 -55 351 -118 453
-141 130 -28 151 -25 145 24 -3 22 -10 27 -48 34 -103 19 -257 61 -376 103
-124 43 -142 51 -133 57 2 2 32 24 65 50 l62 46 68 -33 c226 -110 528 -185
698 -174 56 3 79 25 60 56 -9 14 -32 18 -123 24 -171 10 -373 64 -580 155
l-55 24 35 29 c19 16 41 32 50 35 9 3 59 -5 110 -19 475 -125 479 -126 479
-71 0 28 3 27 -265 95 -110 28 -209 53 -220 57 -17 5 -13 12 34 53 l53 47 57
-14 c129 -30 549 -74 585 -60 12 5 16 16 14 34 -4 34 -18 38 -198 53 -153 13
-349 39 -367 49 -8 4 4 21 36 48 l48 42 74 -11 c85 -12 310 -4 409 15 53 10
65 16 68 32 5 46 -8 50 -125 36 -107 -12 -341 -17 -350 -7 -3 3 31 40 76 83
l81 78 128 0 c133 0 196 11 351 60 85 27 109 52 78 82 -14 14 -29 12 -141 -20
-120 -35 -329 -68 -342 -54 -4 3 52 68 123 144 114 123 132 138 154 132 40
-11 187 -10 237 2 55 14 72 25 72 49 0 36 -23 42 -95 25 -72 -16 -161 -20
-169 -6 -3 4 37 55 89 112 52 57 95 109 95 115 0 16 -22 34 -42 34 -10 0 -100
-90 -215 -215z m-1616 -727 c-3 -7 -5 -2 -5 12 0 14 2 19 5 13 2 -7 2 -19 0
-25z m10 -155 c-3 -10 -5 -2 -5 17 0 19 2 27 5 18 2 -10 2 -26 0 -35z m-410
-145 c-3 -7 -5 -2 -5 12 0 14 2 19 5 13 2 -7 2 -19 0 -25z m200 -10 c-3 -7 -5
-2 -5 12 0 14 2 19 5 13 2 -7 2 -19 0 -25z m-449 8 c-7 -8 -15 -12 -17 -11 -5
6 10 25 20 25 5 0 4 -6 -3 -14z m409 -23 c-3 -10 -5 -4 -5 12 0 17 2 24 5 18
2 -7 2 -21 0 -30z m-396 -54 c-5 -13 -10 -19 -10 -12 -1 15 10 45 15 40 3 -2
0 -15 -5 -28z m226 15 c-3 -3 -12 -4 -19 -1 -8 3 -5 6 6 6 11 1 17 -2 13 -5z
m153 -43 c0 -12 -20 -25 -27 -18 -7 7 6 27 18 27 5 0 9 -4 9 -9z m23 -38 c-19
-7 -16 -63 8 -185 17 -83 25 -108 38 -108 9 0 -9 -13 -39 -28 -72 -36 -100
-77 -100 -149 0 -95 53 -140 152 -131 44 5 107 -9 127 -28 2 -1 -28 -45 -67
-97 l-71 -93 -93 -12 c-51 -6 -120 -14 -153 -17 l-61 -5 -57 55 c-31 30 -63
55 -72 55 -26 0 -17 16 19 32 34 17 35 16 166 -38 73 -30 139 -54 148 -52 20
4 37 32 29 50 -7 18 -214 101 -229 91 -7 -3 -8 -1 -4 6 4 6 24 20 44 30 49 25
125 81 119 87 -3 3 -41 -18 -84 -45 -74 -48 -110 -60 -126 -45 -4 4 39 30 96
58 l102 51 3 43 c2 23 -1 42 -6 42 -13 0 -50 125 -58 197 -6 58 -8 62 -26 52
-11 -6 -22 -8 -26 -5 -3 3 -1 6 5 6 20 0 83 74 99 116 12 32 24 46 52 57 21 8
46 15 57 15 11 0 14 -2 8 -5z m4 -35 c-3 -8 -6 -5 -6 6 -1 11 2 17 5 13 3 -3
4 -12 1 -19z m-425 -118 c-13 -13 -14 -12 -8 10 3 14 6 48 7 75 l2 50 7 -60
c5 -47 4 -63 -8 -75z m468 105 c0 -8 -4 -15 -10 -15 -5 0 -7 7 -4 15 4 8 8 15
10 15 2 0 4 -7 4 -15z m-339 -150 c46 0 49 -2 49 -25 0 -37 29 -167 45 -207 8
-20 15 -37 15 -38 0 -7 -209 -114 -234 -121 -24 -6 -26 -4 -26 24 0 17 8 44
17 61 17 29 17 30 -5 54 -19 20 -22 34 -21 93 0 95 12 160 33 183 18 20 18 20
48 -2 21 -16 44 -22 79 -22z m-205 -76 c-21 -25 -26 -41 -26 -85 l0 -54 -40 0
c-22 0 -57 -7 -77 -15 -20 -9 -35 -13 -32 -11 42 46 194 196 197 196 2 0 -8
-14 -22 -31z m31 -31 c-3 -8 -6 -5 -6 6 -1 11 2 17 5 13 3 -3 4 -12 1 -19z
m-220 -83 l28 -7 -25 -20 -25 -20 -3 25 c-2 14 -12 33 -23 43 -18 16 -19 16
-19 -1 0 -10 -3 -16 -6 -12 -3 3 -3 15 1 27 7 21 7 21 26 -4 10 -13 31 -27 46
-31z m203 -18 c11 -5 9 -6 -4 -4 -11 1 -21 9 -23 17 -3 10 -2 11 4 4 4 -6 15
-14 23 -17z m-201 -91 c24 -38 81 -66 136 -66 21 0 35 -5 35 -12 0 -7 3 -22 6
-34 4 -16 -1 -24 -25 -34 -17 -7 -28 -16 -26 -20 3 -5 0 -12 -6 -16 -8 -4 -9
-3 -5 4 9 15 -9 15 -35 2 -14 -8 -25 -7 -41 5 -25 17 -64 20 -73 5 -3 -5 -11
-10 -17 -10 -7 0 -8 22 -3 68 6 66 22 142 30 142 2 0 13 -15 24 -34z m-62 -43
c0 -16 -1 -20 -4 -10 -5 20 -14 21 -33 5 -8 -7 -6 -3 4 10 25 29 31 28 33 -5z
m293 -16 c0 -7 -9 -13 -21 -13 -19 0 -19 1 -3 13 10 7 19 13 21 13 2 0 3 -6 3
-13z m-353 -29 c-3 -18 -9 -60 -13 -93 -3 -33 -10 -67 -15 -75 -4 -9 -33 -24
-64 -34 l-56 -17 -35 30 c-19 17 -39 31 -45 31 -6 0 -9 10 -7 22 2 16 22 33
64 56 34 19 84 51 110 72 27 21 53 39 58 39 4 1 6 -14 3 -31z m569 17 c-11 -8
-25 -15 -30 -15 -6 1 0 7 14 15 32 19 40 18 16 0z m-525 -88 c-10 -9 -11 -8
-5 6 3 10 9 15 12 12 3 -3 0 -11 -7 -18z m-317 2 c-4 -8 1 -9 17 -5 24 7 24 7
-1 -8 -14 -8 -27 -13 -29 -11 -5 6 7 35 14 35 4 0 3 -5 -1 -11z m283 -11 c-3
-8 -6 -5 -6 6 -1 11 2 17 5 13 3 -3 4 -12 1 -19z m423 -17 c0 -8 -104 -64
-210 -113 -73 -34 -82 -36 -64 -16 27 30 37 56 35 90 -1 14 2 28 6 31 5 3 8
-7 7 -24 -1 -16 1 -29 5 -29 4 0 47 17 97 38 79 34 124 43 124 23z m-433 -33
c-3 -8 -6 -5 -6 6 -1 11 2 17 5 13 3 -3 4 -12 1 -19z m20 -45 c-3 -10 -5 -2
-5 17 0 19 2 27 5 18 2 -10 2 -26 0 -35z m273 -42 c-5 -11 -10 -29 -10 -40 0
-19 -6 -21 -74 -21 -41 0 -78 -4 -81 -10 -3 -5 -16 -9 -28 -9 -13 1 -16 3 -7
6 8 2 56 24 105 48 103 50 109 52 95 26z m-206 -26 c24 -18 22 -20 -29 -34
-26 -7 -41 -7 -43 -1 -2 6 -15 10 -28 10 -36 0 -29 15 14 27 52 15 64 14 86
-2z m-322 -69 c31 -9 67 -16 80 -17 l23 0 -23 -9 c-12 -5 -60 -12 -105 -15
l-82 -5 55 18 55 19 -35 8 c-40 10 -48 12 -56 14 -3 0 -2 6 1 11 4 7 11 8 18
2 7 -5 37 -17 69 -26z m453 -10 c60 -28 99 -67 92 -93 -4 -15 -5 -14 -6 4 -1
28 -58 72 -124 94 -29 10 -43 18 -32 19 11 0 43 -11 70 -24z m-636 -32 c2 -2
-19 -4 -47 -4 -28 0 -53 4 -57 10 -5 8 94 3 104 -6z m458 -110 c63 -63 128
-123 144 -133 l29 -18 -30 -21 c-17 -13 -34 -39 -41 -62 -8 -25 -18 -40 -28
-40 -16 0 -303 44 -371 57 -19 3 -28 8 -20 11 82 24 130 70 130 126 0 31 -26
46 -80 46 -30 0 -58 11 -106 40 -72 43 -79 46 -68 28 5 -8 1 -8 -12 2 -29 22
-30 24 -11 17 11 -4 16 -3 12 3 -3 6 -21 11 -38 11 -18 1 18 6 78 10 61 5 144
15 185 23 41 8 83 14 93 15 11 1 65 -46 134 -115z m288 96 c3 -6 -1 -7 -9 -4
-18 7 -21 14 -7 14 6 0 13 -4 16 -10z m-807 -81 c26 -22 59 -48 73 -56 l26
-16 -33 -29 c-18 -16 -36 -38 -40 -50 -7 -24 -32 -21 -114 15 l-55 25 44 12
c46 12 91 49 91 74 0 22 -38 39 -72 32 -40 -8 -87 -43 -99 -72 l-9 -24 -47 24
c-27 13 -57 31 -67 39 -19 14 -18 15 15 21 19 4 63 14 99 21 95 21 103 23 123
24 11 0 40 -17 65 -40z m951 -197 c-30 -12 -37 -11 -83 12 -28 14 -59 26 -68
26 -9 0 -20 5 -23 10 -4 7 -13 6 -26 -1 -11 -5 -28 -8 -37 -6 -14 4 -13 5 3 6
50 3 47 18 -14 68 l-60 51 50 4 c28 3 58 12 66 21 15 14 25 7 120 -81 l104
-97 -32 -13z m-814 178 c3 -5 1 -10 -4 -10 -6 0 -11 5 -11 10 0 6 2 10 4 10 3
0 8 -4 11 -10z m48 -27 c-7 -2 -21 -2 -30 0 -10 3 -4 5 12 5 17 0 24 -2 18 -5z"/>
<path d="M5863 2650 c0 -25 2 -35 4 -22 2 12 2 32 0 45 -2 12 -4 2 -4 -23z"/>
<path d="M9736 2498 c-27 -43 -30 -127 -7 -196 l21 -62 -54 -81 -54 -81 -7 48
c-3 27 -13 67 -21 90 -17 49 -81 127 -96 118 -7 -5 -9 -37 -5 -93 l6 -87 -35
-19 c-52 -28 -120 -108 -157 -186 l-34 -68 -17 35 c-57 120 -196 211 -260 169
-36 -24 -48 -60 -36 -105 12 -45 110 -142 165 -161 52 -19 43 -33 -17 -25 -60
8 -94 26 -103 56 -8 25 -25 26 -25 1 0 -34 34 -62 88 -75 l53 -12 -117 -28
-117 -29 50 -23 c54 -26 88 -57 79 -72 -18 -29 -145 -38 -226 -16 -25 7 -25 7
4 -16 41 -33 66 -94 66 -163 0 -56 -1 -58 -22 -51 -71 21 -145 94 -168 163 -7
23 -16 41 -20 41 -3 0 -12 -15 -18 -34 -19 -51 -85 -112 -148 -136 -30 -11
-57 -20 -59 -20 -9 0 -5 64 5 100 5 20 23 57 40 84 25 38 27 46 13 42 -31 -9
-95 -25 -183 -45 -252 -60 -309 -73 -354 -82 -75 -14 -108 -53 -125 -146 -11
-58 4 -164 31 -216 26 -53 91 -122 132 -141 38 -18 121 -21 161 -6 24 9 31 6
67 -31 47 -48 92 -69 148 -69 35 0 293 63 715 174 285 75 328 85 337 80 5 -3
19 1 31 9 13 8 77 29 142 46 66 17 203 53 305 80 102 26 266 70 365 95 279 73
282 74 310 108 51 61 71 139 54 216 -13 62 -35 92 -94 126 -39 23 -50 26 -81
17 -20 -6 -34 -8 -31 -5 3 3 -3 21 -14 40 l-19 34 45 0 c35 0 45 4 45 16 0 14
-10 16 -64 12 -36 -2 -62 0 -60 4 3 4 11 8 18 8 33 0 147 123 130 140 -23 23
-158 -67 -190 -126 l-19 -35 -84 3 c-48 2 -86 8 -88 14 -2 5 41 34 94 64 129
70 223 130 223 141 0 13 1 13 -94 -41 -48 -27 -89 -50 -92 -50 -2 0 7 17 20
38 26 39 51 120 41 130 -7 8 -81 -65 -107 -106 -14 -23 -18 -42 -14 -62 5 -28
2 -32 -42 -54 -47 -24 -48 -24 -71 -5 -13 10 -33 19 -45 19 -17 0 -191 -43
-262 -66 -11 -3 26 18 81 46 243 126 426 257 578 414 90 94 67 87 -40 -12 -54
-50 -99 -90 -99 -89 -1 1 5 36 14 79 26 136 -9 172 -63 63 -25 -49 -30 -73
-31 -134 l-2 -74 -48 -37 c-112 -85 -296 -184 -467 -251 -55 -21 -102 -37
-104 -35 -6 5 102 200 149 269 l40 59 23 -28 c22 -27 28 -29 92 -29 79 1 153
32 153 65 0 25 -47 35 -157 34 l-82 0 41 50 c23 28 66 77 97 109 87 90 44 67
-60 -33 -52 -49 -94 -90 -94 -90 0 0 2 30 3 66 4 75 -2 106 -24 128 -21 21
-31 20 -48 -6z m-187 -420 c11 -18 26 -41 33 -50 15 -21 -6 -54 -64 -100 -35
-29 -177 -92 -186 -83 -11 10 23 100 59 155 35 54 98 110 125 110 7 0 21 -15
33 -32z m-440 -32 c43 -22 108 -100 140 -166 33 -68 31 -70 -53 -45 -62 19
-107 47 -145 91 -75 85 -35 168 58 120z m446 -146 c-3 -5 -16 -15 -28 -21 -19
-9 -19 -8 3 10 28 23 34 26 25 11z"/>
<path d="M3651 2112 c4 -20 20 -98 35 -172 28 -142 33 -166 62 -295 18 -79 18
-80 34 -55 9 14 51 81 93 150 43 69 95 150 116 181 l38 56 -27 26 c-69 65
-204 125 -318 141 l-42 6 9 -38z m16 -4 c-3 -8 -6 -5 -6 6 -1 11 2 17 5 13 3
-3 4 -12 1 -19z"/>
<path d="M2912 1972 c-9 -16 -23 -27 -29 -25 -18 6 -16 -4 1 -10 9 -4 22 7 35
29 11 19 18 34 16 34 -3 0 -13 -13 -23 -28z"/>
<path d="M8825 1902 c0 -78 -3 -95 -31 -150 l-31 -63 31 6 c63 13 65 15 72 62
7 49 -9 172 -29 209 -10 20 -12 11 -12 -64z"/>
<path d="M3601 1944 c0 -11 3 -14 6 -6 3 7 2 16 -1 19 -3 4 -6 -2 -5 -13z"/>
<path d="M8757 1921 c-46 -55 -76 -115 -93 -183 l-16 -66 -30 33 c-39 46 -121
85 -175 85 l-44 0 16 -30 c20 -38 76 -75 143 -95 l52 -16 -34 -30 c-41 -35
-86 -121 -86 -161 0 -27 2 -28 23 -17 46 24 99 73 131 120 l32 48 14 -47 c10
-34 30 -63 71 -104 32 -32 62 -58 68 -58 34 0 -9 146 -58 197 -27 28 -27 37 0
22 32 -17 169 -23 204 -9 l30 12 -27 23 c-33 28 -88 38 -186 33 -40 -1 -72 -2
-72 -1 0 1 9 17 19 35 30 50 52 142 49 195 l-3 47 -28 -33z"/>
<path d="M3612 1900 c0 -14 2 -19 5 -12 2 6 2 18 0 25 -3 6 -5 1 -5 -13z"/>
<path d="M2811 1880 c14 -8 -2 -28 -92 -117 -60 -59 -110 -114 -110 -122 -1
-9 -5 -2 -9 14 l-8 30 -1 -35 c-1 -61 3 -62 122 -39 l106 22 6 46 c7 48 29
144 40 172 5 12 -2 20 -26 28 -39 13 -50 14 -28 1z"/>
<path d="M3621 1867 c-1 -6 24 -124 44 -215 4 -17 2 -21 -6 -16 -8 4 -9 3 -5
-4 10 -16 1 -15 -35 4 -57 29 -38 9 23 -25 60 -33 61 -33 54 -10 -4 13 -20 76
-37 139 -30 118 -37 141 -38 127z m59 -247 c0 -5 -5 -10 -11 -10 -5 0 -7 5 -4
10 3 6 8 10 11 10 2 0 4 -4 4 -10z"/>
<path d="M8445 1831 c3 -6 14 -11 23 -11 28 -1 96 -35 134 -69 35 -31 36 -31
42 -9 4 15 0 27 -11 35 -40 31 -202 76 -188 54z"/>
<path d="M4550 1790 c-9 -6 -10 -10 -3 -10 6 0 15 5 18 10 8 12 4 12 -15 0z"/>
<path d="M4500 1770 c-8 -5 -10 -10 -5 -10 6 0 17 5 25 10 8 5 11 10 5 10 -5
0 -17 -5 -25 -10z"/>
<path d="M4952 1645 c-28 -20 -52 -38 -52 -40 0 -3 25 11 55 31 48 32 62 44
52 44 -1 0 -26 -16 -55 -35z"/>
<path d="M4848 1663 c7 -3 16 -2 19 1 4 3 -2 6 -13 5 -11 0 -14 -3 -6 -6z"/>
<path d="M8525 1650 c3 -5 18 -10 33 -9 24 0 25 1 7 9 -28 12 -47 12 -40 0z"/>
<path d="M7925 1604 c6 -5 23 -20 40 -34 29 -24 29 -24 10 -2 -11 13 -29 28
-40 34 -11 6 -15 6 -10 2z"/>
<path d="M3614 1545 c11 -8 25 -15 30 -15 6 0 4 -5 -4 -10 -12 -8 -11 -10 8
-10 33 0 27 14 -15 33 -30 14 -34 14 -19 2z"/>
<path d="M4086 1551 c-4 -5 3 -7 14 -4 23 6 26 13 6 13 -8 0 -17 -4 -20 -9z"/>
<path d="M2684 1521 c-87 -20 -125 -35 -181 -71 -39 -25 -85 -53 -103 -62 -35
-20 -38 -51 -5 -56 24 -3 164 79 234 137 39 32 57 41 87 41 l39 0 -75 -69
c-41 -39 -98 -89 -127 -113 -28 -24 -54 -49 -58 -57 -6 -14 11 -41 26 -41 13
0 206 168 262 228 48 52 62 93 30 91 -10 -1 -68 -13 -129 -28z"/>
<path d="M8015 1530 c10 -11 20 -20 23 -20 3 0 -3 9 -13 20 -10 11 -20 20 -23
20 -3 0 3 -9 13 -20z"/>
<path d="M3588 1503 c6 -2 18 -2 25 0 6 3 1 5 -13 5 -14 0 -19 -2 -12 -5z"/>
<path d="M2821 1474 c0 -11 3 -14 6 -6 3 7 2 16 -1 19 -3 4 -6 -2 -5 -13z"/>
<path d="M3738 1453 c6 -2 18 -2 25 0 6 3 1 5 -13 5 -14 0 -19 -2 -12 -5z"/>
<path d="M2830 1422 c0 -4 -29 -43 -65 -86 -66 -80 -77 -111 -39 -111 14 0 42
25 83 73 60 73 61 74 46 103 -15 28 -25 37 -25 21z"/>
<path d="M3525 1400 c-13 -5 -14 -9 -5 -9 8 0 24 4 35 9 13 5 14 9 5 9 -8 0
-24 -4 -35 -9z"/>
<path d="M3430 1380 c-30 -10 -49 -18 -41 -19 11 -1 10 -5 -3 -20 -21 -24 -17
-54 7 -59 19 -4 26 3 78 76 34 48 34 47 -41 22z"/>
<path d="M4692 1350 c0 -14 2 -19 5 -12 2 6 2 18 0 25 -3 6 -5 1 -5 -13z"/>
<path d="M3295 1353 c-11 -3 -31 -10 -45 -16 -14 -6 -32 -9 -40 -8 -13 2 -13
1 -1 -8 12 -8 6 -19 -32 -60 -51 -55 -54 -62 -33 -81 20 -16 31 -8 120 93 74
83 77 91 31 80z"/>
<path d="M2906 1317 c5 -14 -79 -105 -144 -157 -40 -32 -42 -36 -29 -55 14
-18 17 -18 43 -5 58 30 217 201 201 216 -12 12 -76 13 -71 1z"/>
<path d="M3158 1313 c6 -2 18 -2 25 0 6 3 1 5 -13 5 -14 0 -19 -2 -12 -5z"/>
<path d="M3065 1300 c-22 -8 -95 -85 -95 -99 0 -16 29 -33 43 -24 12 8 77 78
106 116 12 15 11 17 -10 16 -13 0 -33 -4 -44 -9z"/>
<path d="M4691 1293 c-1 -12 9 -32 22 -45 12 -13 16 -16 9 -7 -7 9 -17 30 -22
45 -7 24 -8 25 -9 7z"/>
<path d="M4805 1190 c11 -5 27 -9 35 -9 9 0 8 4 -5 9 -11 5 -27 9 -35 9 -9 0
-8 -4 5 -9z"/>
<path d="M4868 1173 c7 -3 16 -2 19 1 4 3 -2 6 -13 5 -11 0 -14 -3 -6 -6z"/>
<path d="M4918 1163 c6 -2 18 -2 25 0 6 3 1 5 -13 5 -14 0 -19 -2 -12 -5z"/>
<path d="M4973 1153 c9 -2 23 -2 30 0 6 3 -1 5 -18 5 -16 0 -22 -2 -12 -5z"/>
<path d="M7818 1153 c7 -3 16 -2 19 1 4 3 -2 6 -13 5 -11 0 -14 -3 -6 -6z"/>
<path d="M5043 1143 c9 -2 23 -2 30 0 6 3 -1 5 -18 5 -16 0 -22 -2 -12 -5z"/>
<path d="M7763 1143 c9 -2 23 -2 30 0 6 3 -1 5 -18 5 -16 0 -22 -2 -12 -5z"/>
<path d="M5118 1133 c12 -2 30 -2 40 0 9 3 -1 5 -23 4 -22 0 -30 -2 -17 -4z"/>
<path d="M7668 1133 c12 -2 32 -2 45 0 12 2 2 4 -23 4 -25 0 -35 -2 -22 -4z"/>
<path d="M5228 1123 c12 -2 30 -2 40 0 9 3 -1 5 -23 4 -22 0 -30 -2 -17 -4z"/>
<path d="M7568 1123 c12 -2 30 -2 40 0 9 3 -1 5 -23 4 -22 0 -30 -2 -17 -4z"/>
<path d="M5338 1113 c17 -2 47 -2 65 0 17 2 3 4 -33 4 -36 0 -50 -2 -32 -4z"/>
<path d="M7428 1113 c17 -2 47 -2 65 0 17 2 3 4 -33 4 -36 0 -50 -2 -32 -4z"/>
<path d="M5498 1103 c17 -2 47 -2 65 0 17 2 3 4 -33 4 -36 0 -50 -2 -32 -4z"/>
<path d="M7268 1103 c17 -2 47 -2 65 0 17 2 3 4 -33 4 -36 0 -50 -2 -32 -4z"/>
<path d="M5683 1093 c31 -2 83 -2 115 0 31 2 5 3 -58 3 -63 0 -89 -1 -57 -3z"/>
<path d="M7013 1093 c37 -2 96 -2 130 0 34 2 4 3 -68 3 -71 0 -99 -1 -62 -3z"/>
<path d="M6183 1083 c125 -2 329 -2 455 0 125 1 22 2 -228 2 -250 0 -353 -1
-227 -2z"/>
<path d="M4800 1065 c0 -4 10 -15 22 -25 l22 -17 -37 -12 c-42 -14 -77 -53
-77 -87 0 -36 47 -66 97 -62 39 3 42 2 36 -19 -3 -13 -1 -23 5 -23 14 0 62 58
62 75 0 33 54 40 165 23 12 -2 20 3 20 12 0 21 -79 58 -140 66 -34 5 -60 16
-83 36 -18 15 -39 28 -47 28 -7 0 -20 3 -29 6 -9 3 -16 3 -16 -1z"/>
<path d="M4357 1030 c-5 -19 -7 -19 -41 -5 -50 21 -73 19 -102 -11 -33 -32
-26 -67 21 -112 l35 -32 -25 -10 c-14 -5 -25 -14 -25 -20 0 -15 71 -12 105 6
24 12 37 13 70 4 58 -16 170 -9 170 10 0 10 -14 17 -42 21 -22 3 -59 13 -82
24 -38 16 -41 21 -41 56 0 39 -17 89 -30 89 -4 0 -10 -9 -13 -20z"/>
</g>
</svg>
